<svg width="505" height="569" viewBox="0 0 505 569" fill="none" xmlns="http://www.w3.org/2000/svg">
<mask id="path-1-inside-1_40_95" fill="white">
<path fill-rule="evenodd" clip-rule="evenodd" d="M282.949 242.247L357.206 151.582L252.082 0L146.959 151.582L221.215 242.247L247.821 209.997L252.082 204.832L256.343 209.997L282.949 242.247ZM278.704 247.431L252.082 215.162L225.461 247.431L252.082 279.935L278.704 247.431ZM213.79 251.248L124.851 168.929L0.0170898 284.472L124.851 400.014L213.79 317.696L186.38 284.472L213.79 251.248ZM218.622 313.224L194.902 284.472L218.622 255.72L249.686 284.472L218.622 313.224ZM221.2 326.678L146.959 417.325L252.082 568.907L357.206 417.325L282.965 326.678L256.343 358.947L252.082 364.112L247.821 358.947L221.2 326.678ZM278.719 321.495L252.082 353.782L225.445 321.495L252.082 288.972L278.719 321.495ZM285.479 313.301L254.331 284.472L285.479 255.643L309.263 284.472L285.479 313.301ZM290.311 317.774L317.785 284.472L290.311 251.17L379.166 168.929L504 284.472L379.166 400.014L290.311 317.774Z"/>
</mask>
<path fill-rule="evenodd" clip-rule="evenodd" d="M282.949 242.247L357.206 151.582L252.082 0L146.959 151.582L221.215 242.247L247.821 209.997L252.082 204.832L256.343 209.997L282.949 242.247ZM278.704 247.431L252.082 215.162L225.461 247.431L252.082 279.935L278.704 247.431ZM213.79 251.248L124.851 168.929L0.0170898 284.472L124.851 400.014L213.79 317.696L186.38 284.472L213.79 251.248ZM218.622 313.224L194.902 284.472L218.622 255.72L249.686 284.472L218.622 313.224ZM221.2 326.678L146.959 417.325L252.082 568.907L357.206 417.325L282.965 326.678L256.343 358.947L252.082 364.112L247.821 358.947L221.2 326.678ZM278.719 321.495L252.082 353.782L225.445 321.495L252.082 288.972L278.719 321.495ZM285.479 313.301L254.331 284.472L285.479 255.643L309.263 284.472L285.479 313.301ZM290.311 317.774L317.785 284.472L290.311 251.17L379.166 168.929L504 284.472L379.166 400.014L290.311 317.774Z" fill="url(#paint0_radial_40_95)"/>
<path d="M357.206 151.582L358.336 152.508L359.034 151.655L358.406 150.75L357.206 151.582ZM282.949 242.247L281.822 243.177L282.953 244.548L284.079 243.173L282.949 242.247ZM252.082 0L253.283 -0.832467L252.082 -2.56333L250.882 -0.832467L252.082 0ZM146.959 151.582L145.758 150.75L145.13 151.655L145.829 152.508L146.959 151.582ZM221.215 242.247L220.085 243.173L221.211 244.548L222.342 243.177L221.215 242.247ZM247.821 209.997L248.948 210.927L248.948 210.927L247.821 209.997ZM252.082 204.832L253.209 203.903L252.082 202.537L250.956 203.903L252.082 204.832ZM256.343 209.997L257.47 209.067L257.47 209.067L256.343 209.997ZM278.704 247.431L279.834 248.356L280.595 247.427L279.831 246.501L278.704 247.431ZM252.082 215.162L253.209 214.232L252.082 212.866L250.956 214.232L252.082 215.162ZM225.461 247.431L224.334 246.501L223.57 247.427L224.331 248.356L225.461 247.431ZM252.082 279.935L250.952 280.86L252.082 282.24L253.212 280.86L252.082 279.935ZM213.79 251.248L214.917 252.178L215.795 251.113L214.782 250.176L213.79 251.248ZM124.851 168.929L125.844 167.857L124.851 166.939L123.859 167.857L124.851 168.929ZM0.0170898 284.472L-0.975171 283.4L-2.13344 284.472L-0.975171 285.544L0.0170898 284.472ZM124.851 400.014L123.859 401.086L124.851 402.005L125.844 401.086L124.851 400.014ZM213.79 317.696L214.782 318.768L215.795 317.831L214.916 316.766L213.79 317.696ZM186.38 284.472L185.253 283.542L184.486 284.472L185.253 285.402L186.38 284.472ZM194.902 284.472L193.775 283.542L193.008 284.472L193.775 285.402L194.902 284.472ZM218.622 313.224L217.495 314.153L218.479 315.346L219.614 314.296L218.622 313.224ZM218.622 255.72L219.614 254.648L218.479 253.598L217.495 254.791L218.622 255.72ZM249.686 284.472L250.678 285.544L251.836 284.472L250.678 283.4L249.686 284.472ZM146.959 417.325L145.829 416.399L145.13 417.252L145.758 418.157L146.959 417.325ZM221.2 326.678L222.327 325.749L221.196 324.378L220.07 325.753L221.2 326.678ZM252.082 568.907L250.882 569.739L252.082 571.47L253.283 569.739L252.082 568.907ZM357.206 417.325L358.406 418.157L359.034 417.251L358.336 416.399L357.206 417.325ZM282.965 326.678L284.095 325.753L282.969 324.378L281.838 325.749L282.965 326.678ZM256.343 358.947L257.47 359.877L257.47 359.877L256.343 358.947ZM252.082 364.112L250.956 365.041L252.082 366.407L253.209 365.041L252.082 364.112ZM247.821 358.947L246.695 359.877L246.695 359.877L247.821 358.947ZM252.082 353.782L250.956 354.712L252.082 356.078L253.209 354.712L252.082 353.782ZM278.719 321.495L279.846 322.424L280.61 321.498L279.849 320.569L278.719 321.495ZM225.445 321.495L224.315 320.569L223.554 321.498L224.318 322.424L225.445 321.495ZM252.082 288.972L253.212 288.046L252.082 286.666L250.952 288.046L252.082 288.972ZM254.331 284.472L253.339 283.4L252.181 284.472L253.339 285.544L254.331 284.472ZM285.479 313.301L284.487 314.373L285.622 315.424L286.606 314.231L285.479 313.301ZM285.479 255.643L286.606 254.713L285.622 253.52L284.487 254.571L285.479 255.643ZM309.263 284.472L310.39 285.402L311.156 284.472L310.39 283.542L309.263 284.472ZM290.311 317.774L289.184 316.844L288.306 317.908L289.319 318.846L290.311 317.774ZM317.785 284.472L318.911 285.402L319.678 284.472L318.911 283.542L317.785 284.472ZM290.311 251.17L289.319 250.098L288.306 251.036L289.184 252.1L290.311 251.17ZM379.166 168.929L380.158 167.857L379.166 166.939L378.173 167.857L379.166 168.929ZM504 284.472L504.992 285.544L506.15 284.472L504.992 283.4L504 284.472ZM379.166 400.014L378.173 401.086L379.166 402.005L380.158 401.086L379.166 400.014ZM356.076 150.656L281.819 241.322L284.079 243.173L358.336 152.508L356.076 150.656ZM250.882 0.832467L356.005 152.415L358.406 150.75L253.283 -0.832467L250.882 0.832467ZM148.159 152.415L253.283 0.832467L250.882 -0.832467L145.758 150.75L148.159 152.415ZM222.345 241.322L148.089 150.656L145.829 152.508L220.085 243.173L222.345 241.322ZM246.695 209.067L220.089 241.318L222.342 243.177L248.948 210.927L246.695 209.067ZM250.956 203.903L246.695 209.067L248.948 210.927L253.209 205.762L250.956 203.903ZM257.47 209.067L253.209 203.903L250.956 205.762L255.216 210.927L257.47 209.067ZM284.076 241.318L257.47 209.067L255.216 210.927L281.822 243.177L284.076 241.318ZM279.831 246.501L253.209 214.232L250.956 216.091L277.577 248.36L279.831 246.501ZM250.956 214.232L224.334 246.501L226.588 248.36L253.209 216.091L250.956 214.232ZM253.212 279.009L226.591 246.505L224.331 248.356L250.952 280.86L253.212 279.009ZM277.574 246.505L250.952 279.009L253.212 280.86L279.834 248.356L277.574 246.505ZM214.782 250.176L125.844 167.857L123.859 170.001L212.798 252.32L214.782 250.176ZM123.859 167.857L-0.975171 283.4L1.00935 285.544L125.844 170.001L123.859 167.857ZM-0.975171 285.544L123.859 401.086L125.844 398.942L1.00935 283.4L-0.975171 285.544ZM125.844 401.086L214.782 318.768L212.797 316.624L123.859 398.942L125.844 401.086ZM185.253 285.402L212.663 318.626L214.916 316.766L187.507 283.542L185.253 285.402ZM212.663 250.318L185.253 283.542L187.507 285.402L214.917 252.178L212.663 250.318ZM193.775 285.402L217.495 314.153L219.749 312.294L196.029 283.542L193.775 285.402ZM217.495 254.791L193.775 283.542L196.029 285.402L219.749 256.65L217.495 254.791ZM250.678 283.4L219.614 254.648L217.63 256.792L248.693 285.544L250.678 283.4ZM219.614 314.296L250.678 285.544L248.693 283.4L217.629 312.152L219.614 314.296ZM148.089 418.25L222.33 327.604L220.07 325.753L145.829 416.399L148.089 418.25ZM253.283 568.074L148.159 416.492L145.758 418.157L250.882 569.739L253.283 568.074ZM356.005 416.492L250.882 568.074L253.283 569.739L358.406 418.157L356.005 416.492ZM281.835 327.604L356.076 418.25L358.336 416.399L284.095 325.753L281.835 327.604ZM257.47 359.877L284.092 327.608L281.838 325.749L255.216 358.017L257.47 359.877ZM253.209 365.041L257.47 359.877L255.216 358.017L250.956 363.182L253.209 365.041ZM246.695 359.877L250.956 365.041L253.209 363.182L248.948 358.017L246.695 359.877ZM220.073 327.608L246.695 359.877L248.948 358.017L222.327 325.749L220.073 327.608ZM253.209 354.712L279.846 322.424L277.592 320.565L250.956 352.853L253.209 354.712ZM224.318 322.424L250.956 354.712L253.209 352.853L226.572 320.565L224.318 322.424ZM226.575 322.42L253.212 289.897L250.952 288.046L224.315 320.569L226.575 322.42ZM250.952 289.897L277.589 322.42L279.849 320.569L253.212 288.046L250.952 289.897ZM253.339 285.544L284.487 314.373L286.471 312.229L255.324 283.4L253.339 285.544ZM284.487 254.571L253.339 283.4L255.324 285.544L286.471 256.715L284.487 254.571ZM310.39 283.542L286.606 254.713L284.352 256.572L308.136 285.402L310.39 283.542ZM286.606 314.231L310.39 285.402L308.136 283.542L284.352 312.372L286.606 314.231ZM291.438 318.703L318.911 285.402L316.658 283.542L289.184 316.844L291.438 318.703ZM318.911 283.542L291.438 250.241L289.184 252.1L316.658 285.402L318.911 283.542ZM378.173 167.857L289.319 250.098L291.303 252.242L380.158 170.001L378.173 167.857ZM504.992 283.4L380.158 167.857L378.173 170.001L503.007 285.544L504.992 283.4ZM380.158 401.086L504.992 285.544L503.007 283.4L378.173 398.942L380.158 401.086ZM289.319 318.846L378.173 401.086L380.158 398.942L291.303 316.702L289.319 318.846Z" fill="#6980E3" mask="url(#path-1-inside-1_40_95)"/>
<path d="M223.878 323.381L252.056 288.975L280.237 323.379L252.057 357.537L223.878 323.381Z" fill="#6980E3"/>
<path d="M223.878 245.526L252.056 279.932L280.237 245.527L252.057 211.37L223.878 245.526Z" fill="#6980E3"/>
<path d="M254.359 284.454L287.207 314.928L312.335 284.471L287.21 254.021L254.359 284.454Z" fill="#6980E3"/>
<path d="M249.658 284.472L216.81 314.946L191.682 284.489L216.807 254.039L249.658 284.472Z" fill="#6980E3"/>
<path d="M342.205 279.498H350.362V282.069H342.205V279.498ZM342.462 288.333H339.424V271.972H351.367V274.52H342.462V288.333ZM353.797 288.333V275.852H356.578V279.288L356.251 278.283C356.625 277.441 357.209 276.803 358.004 276.366C358.814 275.93 359.819 275.712 361.019 275.712V278.493C360.895 278.462 360.778 278.446 360.669 278.446C360.56 278.431 360.45 278.423 360.341 278.423C359.235 278.423 358.355 278.75 357.7 279.405C357.046 280.044 356.719 281.002 356.719 282.28V288.333H353.797ZM369.25 288.497C367.863 288.497 366.648 288.224 365.604 287.679C364.575 287.118 363.773 286.354 363.196 285.388C362.636 284.422 362.355 283.323 362.355 282.093C362.355 280.846 362.628 279.748 363.173 278.797C363.734 277.831 364.498 277.075 365.464 276.53C366.445 275.985 367.559 275.712 368.806 275.712C370.021 275.712 371.104 275.977 372.055 276.507C373.005 277.036 373.753 277.784 374.298 278.75C374.844 279.716 375.116 280.854 375.116 282.163C375.116 282.287 375.109 282.428 375.093 282.583C375.093 282.739 375.085 282.887 375.07 283.027H364.669V281.088H373.527L372.382 281.695C372.397 280.978 372.249 280.347 371.938 279.802C371.626 279.257 371.198 278.828 370.652 278.517C370.123 278.205 369.507 278.049 368.806 278.049C368.089 278.049 367.458 278.205 366.913 278.517C366.383 278.828 365.962 279.264 365.651 279.825C365.355 280.371 365.207 281.017 365.207 281.765V282.233C365.207 282.981 365.378 283.643 365.721 284.219C366.064 284.796 366.547 285.24 367.17 285.552C367.793 285.863 368.51 286.019 369.32 286.019C370.021 286.019 370.652 285.91 371.213 285.692C371.774 285.474 372.273 285.131 372.709 284.664L374.275 286.463C373.714 287.118 373.005 287.624 372.148 287.982C371.307 288.325 370.341 288.497 369.25 288.497ZM383.789 288.497C382.403 288.497 381.187 288.224 380.143 287.679C379.115 287.118 378.312 286.354 377.736 285.388C377.175 284.422 376.894 283.323 376.894 282.093C376.894 280.846 377.167 279.748 377.712 278.797C378.273 277.831 379.037 277.075 380.003 276.53C380.985 275.985 382.099 275.712 383.345 275.712C384.561 275.712 385.644 275.977 386.594 276.507C387.544 277.036 388.292 277.784 388.838 278.75C389.383 279.716 389.656 280.854 389.656 282.163C389.656 282.287 389.648 282.428 389.632 282.583C389.632 282.739 389.625 282.887 389.609 283.027H379.208V281.088H388.066L386.921 281.695C386.937 280.978 386.789 280.347 386.477 279.802C386.166 279.257 385.737 278.828 385.192 278.517C384.662 278.205 384.046 278.049 383.345 278.049C382.628 278.049 381.997 278.205 381.452 278.517C380.922 278.828 380.502 279.264 380.19 279.825C379.894 280.371 379.746 281.017 379.746 281.765V282.233C379.746 282.981 379.917 283.643 380.26 284.219C380.603 284.796 381.086 285.24 381.709 285.552C382.332 285.863 383.049 286.019 383.859 286.019C384.561 286.019 385.192 285.91 385.753 285.692C386.314 285.474 386.812 285.131 387.248 284.664L388.814 286.463C388.253 287.118 387.544 287.624 386.688 287.982C385.846 288.325 384.88 288.497 383.789 288.497ZM397.744 288.497C396.545 288.497 395.462 288.232 394.496 287.702C393.545 287.157 392.797 286.409 392.252 285.458C391.706 284.508 391.434 283.386 391.434 282.093C391.434 280.799 391.706 279.677 392.252 278.727C392.797 277.776 393.545 277.036 394.496 276.507C395.462 275.977 396.545 275.712 397.744 275.712C398.788 275.712 399.723 275.946 400.549 276.413C401.375 276.865 402.029 277.558 402.512 278.493C402.995 279.428 403.237 280.628 403.237 282.093C403.237 283.542 403.003 284.741 402.536 285.692C402.068 286.627 401.422 287.328 400.596 287.795C399.77 288.263 398.819 288.497 397.744 288.497ZM398.095 285.996C398.796 285.996 399.419 285.84 399.965 285.528C400.526 285.217 400.97 284.765 401.297 284.173C401.64 283.581 401.811 282.887 401.811 282.093C401.811 281.282 401.64 280.589 401.297 280.012C400.97 279.42 400.526 278.968 399.965 278.657C399.419 278.345 398.796 278.189 398.095 278.189C397.394 278.189 396.763 278.345 396.202 278.657C395.656 278.968 395.212 279.42 394.87 280.012C394.542 280.589 394.379 281.282 394.379 282.093C394.379 282.887 394.542 283.581 394.87 284.173C395.212 284.765 395.656 285.217 396.202 285.528C396.763 285.84 397.394 285.996 398.095 285.996ZM401.881 288.333V285.388L401.998 282.069L401.764 278.75V270.991H404.663V288.333H401.881ZM414.117 288.497C412.84 288.497 411.702 288.224 410.705 287.679C409.708 287.118 408.921 286.354 408.344 285.388C407.768 284.422 407.48 283.323 407.48 282.093C407.48 280.846 407.768 279.748 408.344 278.797C408.921 277.831 409.708 277.075 410.705 276.53C411.702 275.985 412.84 275.712 414.117 275.712C415.411 275.712 416.556 275.985 417.553 276.53C418.566 277.075 419.353 277.823 419.914 278.774C420.49 279.724 420.779 280.83 420.779 282.093C420.779 283.323 420.49 284.422 419.914 285.388C419.353 286.354 418.566 287.118 417.553 287.679C416.556 288.224 415.411 288.497 414.117 288.497ZM414.117 285.996C414.834 285.996 415.473 285.84 416.034 285.528C416.595 285.217 417.031 284.765 417.343 284.173C417.67 283.581 417.834 282.887 417.834 282.093C417.834 281.282 417.67 280.589 417.343 280.012C417.031 279.42 416.595 278.968 416.034 278.657C415.473 278.345 414.842 278.189 414.141 278.189C413.424 278.189 412.785 278.345 412.224 278.657C411.679 278.968 411.243 279.42 410.915 280.012C410.588 280.589 410.424 281.282 410.424 282.093C410.424 282.887 410.588 283.581 410.915 284.173C411.243 284.765 411.679 285.217 412.224 285.528C412.785 285.84 413.416 285.996 414.117 285.996ZM439.325 275.712C440.323 275.712 441.203 275.907 441.966 276.296C442.746 276.686 443.353 277.286 443.79 278.096C444.226 278.891 444.444 279.919 444.444 281.181V288.333H441.522V281.555C441.522 280.449 441.281 279.623 440.798 279.077C440.315 278.532 439.621 278.259 438.718 278.259C438.079 278.259 437.51 278.4 437.011 278.68C436.528 278.961 436.147 279.374 435.866 279.919C435.601 280.464 435.469 281.158 435.469 281.999V288.333H432.547V281.555C432.547 280.449 432.306 279.623 431.823 279.077C431.34 278.532 430.646 278.259 429.743 278.259C429.104 278.259 428.535 278.4 428.036 278.68C427.553 278.961 427.172 279.374 426.891 279.919C426.626 280.464 426.494 281.158 426.494 281.999V288.333H423.572V275.852H426.354V279.171L425.863 278.189C426.283 277.379 426.891 276.764 427.686 276.343C428.496 275.922 429.415 275.712 430.444 275.712C431.612 275.712 432.625 276 433.482 276.577C434.355 277.153 434.931 278.026 435.212 279.194L434.067 278.797C434.472 277.862 435.142 277.114 436.077 276.553C437.011 275.992 438.094 275.712 439.325 275.712Z" fill="white"/>
<path d="M74.4968 292.21V275.85H81.6488C83.4251 275.85 84.9833 276.192 86.3233 276.878C87.6633 277.564 88.7073 278.514 89.4552 279.73C90.2032 280.945 90.5771 282.378 90.5771 284.03C90.5771 285.666 90.2032 287.1 89.4552 288.331C88.7073 289.546 87.6633 290.496 86.3233 291.182C84.9833 291.868 83.4251 292.21 81.6488 292.21H74.4968ZM77.5352 289.639H81.5086C82.7395 289.639 83.7991 289.406 84.6872 288.938C85.591 288.471 86.2844 287.816 86.7674 286.975C87.266 286.134 87.5153 285.152 87.5153 284.03C87.5153 282.893 87.266 281.911 86.7674 281.085C86.2844 280.244 85.591 279.589 84.6872 279.122C83.7991 278.654 82.7395 278.421 81.5086 278.421H77.5352V289.639ZM93.5261 292.21V279.73H96.4476V292.21H93.5261ZM94.9985 277.673C94.4532 277.673 94.0013 277.501 93.6429 277.159C93.3001 276.816 93.1287 276.403 93.1287 275.92C93.1287 275.421 93.3001 275.008 93.6429 274.681C94.0013 274.338 94.4532 274.167 94.9985 274.167C95.5439 274.167 95.988 274.33 96.3308 274.658C96.6892 274.969 96.8683 275.367 96.8683 275.85C96.8683 276.364 96.6969 276.8 96.3541 277.159C96.0114 277.501 95.5595 277.673 94.9985 277.673ZM105.938 296.908C104.785 296.908 103.656 296.753 102.549 296.441C101.459 296.145 100.563 295.709 99.8615 295.132L101.17 292.935C101.716 293.387 102.401 293.745 103.227 294.01C104.069 294.291 104.918 294.431 105.775 294.431C107.146 294.431 108.151 294.111 108.79 293.473C109.429 292.849 109.748 291.907 109.748 290.644V288.424L109.982 285.596L109.888 282.768V279.73H112.67V290.317C112.67 292.577 112.093 294.236 110.94 295.296C109.787 296.371 108.12 296.908 105.938 296.908ZM105.564 291.65C104.38 291.65 103.305 291.4 102.339 290.902C101.388 290.387 100.633 289.678 100.072 288.775C99.5265 287.871 99.2538 286.811 99.2538 285.596C99.2538 284.396 99.5265 283.344 100.072 282.441C100.633 281.537 101.388 280.836 102.339 280.337C103.305 279.839 104.38 279.589 105.564 279.589C106.624 279.589 107.574 279.8 108.416 280.22C109.257 280.641 109.927 281.295 110.426 282.184C110.94 283.072 111.197 284.209 111.197 285.596C111.197 286.983 110.94 288.128 110.426 289.032C109.927 289.92 109.257 290.582 108.416 291.018C107.574 291.439 106.624 291.65 105.564 291.65ZM106.008 289.172C106.741 289.172 107.395 289.024 107.972 288.728C108.548 288.416 108.992 287.996 109.304 287.466C109.631 286.92 109.795 286.297 109.795 285.596C109.795 284.895 109.631 284.279 109.304 283.75C108.992 283.204 108.548 282.791 107.972 282.511C107.395 282.215 106.741 282.067 106.008 282.067C105.276 282.067 104.614 282.215 104.022 282.511C103.445 282.791 102.993 283.204 102.666 283.75C102.355 284.279 102.199 284.895 102.199 285.596C102.199 286.297 102.355 286.92 102.666 287.466C102.993 287.996 103.445 288.416 104.022 288.728C104.614 289.024 105.276 289.172 106.008 289.172ZM123.592 279.589C124.59 279.589 125.478 279.784 126.257 280.174C127.052 280.563 127.675 281.163 128.127 281.973C128.579 282.768 128.805 283.796 128.805 285.058V292.21H125.883V285.432C125.883 284.326 125.618 283.5 125.088 282.955C124.574 282.41 123.85 282.137 122.915 282.137C122.229 282.137 121.621 282.277 121.092 282.558C120.562 282.838 120.149 283.259 119.853 283.82C119.572 284.365 119.432 285.058 119.432 285.9V292.21H116.511V279.73H119.292V283.095L118.801 282.067C119.237 281.272 119.868 280.664 120.694 280.244C121.536 279.807 122.502 279.589 123.592 279.589ZM132.511 292.21V279.73H135.432V292.21H132.511ZM133.983 277.673C133.438 277.673 132.986 277.501 132.628 277.159C132.285 276.816 132.113 276.403 132.113 275.92C132.113 275.421 132.285 275.008 132.628 274.681C132.986 274.338 133.438 274.167 133.983 274.167C134.529 274.167 134.973 274.33 135.315 274.658C135.674 274.969 135.853 275.367 135.853 275.85C135.853 276.364 135.682 276.8 135.339 277.159C134.996 277.501 134.544 277.673 133.983 277.673ZM143.965 292.374C142.594 292.374 141.534 292.023 140.786 291.322C140.038 290.606 139.664 289.554 139.664 288.167V276.972H142.586V288.097C142.586 288.689 142.734 289.149 143.03 289.476C143.341 289.803 143.77 289.967 144.315 289.967C144.97 289.967 145.515 289.795 145.951 289.452L146.769 291.533C146.427 291.813 146.006 292.023 145.507 292.164C145.009 292.304 144.494 292.374 143.965 292.374ZM137.607 282.16V279.823H145.928V282.16H137.607ZM149.973 296.908C149.365 296.908 148.758 296.807 148.15 296.604C147.542 296.402 147.036 296.121 146.631 295.763L147.799 293.613C148.095 293.878 148.43 294.088 148.804 294.244C149.178 294.4 149.56 294.478 149.95 294.478C150.479 294.478 150.908 294.345 151.235 294.08C151.562 293.815 151.866 293.371 152.147 292.748L152.871 291.112L153.105 290.761L157.826 279.73H160.631L154.788 293.215C154.398 294.15 153.962 294.89 153.479 295.436C153.011 295.981 152.482 296.363 151.889 296.581C151.313 296.799 150.674 296.908 149.973 296.908ZM152.544 292.655L146.911 279.73H149.95L154.531 290.504L152.544 292.655Z" fill="white"/>
<path d="M210.182 153.394C208.904 153.394 207.681 153.215 206.512 152.857C205.344 152.483 204.417 152.008 203.731 151.431L204.783 149.07C205.437 149.585 206.248 150.013 207.214 150.356C208.18 150.699 209.169 150.87 210.182 150.87C211.039 150.87 211.732 150.777 212.262 150.59C212.792 150.403 213.181 150.153 213.431 149.842C213.68 149.515 213.805 149.148 213.805 148.743C213.805 148.245 213.625 147.847 213.267 147.551C212.909 147.24 212.441 146.998 211.865 146.827C211.304 146.64 210.673 146.468 209.972 146.312C209.286 146.157 208.593 145.977 207.891 145.775C207.206 145.557 206.575 145.284 205.998 144.957C205.437 144.614 204.978 144.162 204.619 143.601C204.261 143.04 204.082 142.324 204.082 141.451C204.082 140.563 204.315 139.753 204.783 139.02C205.266 138.272 205.99 137.68 206.957 137.244C207.938 136.792 209.177 136.566 210.673 136.566C211.654 136.566 212.628 136.691 213.594 136.94C214.56 137.189 215.402 137.548 216.119 138.015L215.16 140.376C214.428 139.94 213.672 139.62 212.893 139.418C212.114 139.199 211.366 139.09 210.649 139.09C209.808 139.09 209.122 139.192 208.593 139.394C208.078 139.597 207.697 139.862 207.447 140.189C207.214 140.516 207.097 140.89 207.097 141.311C207.097 141.809 207.268 142.215 207.611 142.526C207.969 142.822 208.429 143.056 208.99 143.227C209.566 143.399 210.205 143.57 210.906 143.742C211.608 143.897 212.301 144.077 212.987 144.279C213.688 144.482 214.319 144.747 214.88 145.074C215.456 145.401 215.916 145.845 216.259 146.406C216.617 146.967 216.796 147.676 216.796 148.533C216.796 149.405 216.555 150.216 216.072 150.964C215.604 151.696 214.88 152.288 213.898 152.74C212.917 153.176 211.678 153.394 210.182 153.394ZM225.395 153.324C224.008 153.324 222.793 153.052 221.749 152.506C220.721 151.945 219.918 151.182 219.342 150.216C218.781 149.25 218.5 148.151 218.5 146.92C218.5 145.674 218.773 144.575 219.318 143.625C219.879 142.659 220.643 141.903 221.609 141.358C222.591 140.812 223.705 140.539 224.951 140.539C226.167 140.539 227.249 140.804 228.2 141.334C229.15 141.864 229.898 142.612 230.444 143.578C230.989 144.544 231.262 145.681 231.262 146.99C231.262 147.115 231.254 147.255 231.238 147.411C231.238 147.567 231.231 147.715 231.215 147.855H220.814V145.915H229.672L228.527 146.523C228.543 145.806 228.395 145.175 228.083 144.63C227.771 144.084 227.343 143.656 226.798 143.344C226.268 143.033 225.652 142.877 224.951 142.877C224.234 142.877 223.603 143.033 223.058 143.344C222.528 143.656 222.108 144.092 221.796 144.653C221.5 145.198 221.352 145.845 221.352 146.593V147.06C221.352 147.808 221.523 148.471 221.866 149.047C222.209 149.624 222.692 150.068 223.315 150.379C223.938 150.691 224.655 150.847 225.465 150.847C226.167 150.847 226.798 150.738 227.359 150.52C227.919 150.301 228.418 149.959 228.854 149.491L230.42 151.291C229.859 151.945 229.15 152.452 228.293 152.81C227.452 153.153 226.486 153.324 225.395 153.324ZM239.794 153.324C238.486 153.324 237.317 153.052 236.289 152.506C235.276 151.945 234.481 151.182 233.905 150.216C233.328 149.25 233.04 148.151 233.04 146.92C233.04 145.674 233.328 144.575 233.905 143.625C234.481 142.659 235.276 141.903 236.289 141.358C237.317 140.812 238.486 140.539 239.794 140.539C241.01 140.539 242.077 140.789 242.996 141.287C243.931 141.77 244.64 142.487 245.123 143.438L242.88 144.747C242.506 144.154 242.046 143.718 241.501 143.438C240.971 143.157 240.394 143.017 239.771 143.017C239.054 143.017 238.408 143.173 237.831 143.484C237.255 143.796 236.803 144.248 236.475 144.84C236.148 145.417 235.985 146.11 235.985 146.92C235.985 147.73 236.148 148.432 236.475 149.024C236.803 149.6 237.255 150.044 237.831 150.356C238.408 150.668 239.054 150.823 239.771 150.823C240.394 150.823 240.971 150.683 241.501 150.403C242.046 150.122 242.506 149.686 242.88 149.094L245.123 150.403C244.64 151.338 243.931 152.062 242.996 152.576C242.077 153.075 241.01 153.324 239.794 153.324ZM252.931 153.324C251.871 153.324 250.937 153.129 250.126 152.74C249.316 152.335 248.685 151.727 248.233 150.917C247.781 150.091 247.555 149.055 247.555 147.808V140.68H250.477V147.411C250.477 148.533 250.726 149.374 251.225 149.935C251.739 150.481 252.464 150.753 253.398 150.753C254.084 150.753 254.676 150.613 255.175 150.333C255.689 150.052 256.086 149.631 256.367 149.07C256.663 148.51 256.811 147.816 256.811 146.99V140.68H259.732V153.161H256.951V149.795L257.442 150.823C257.021 151.634 256.406 152.257 255.595 152.693C254.785 153.114 253.897 153.324 252.931 153.324ZM263.558 153.161V140.68H266.339V144.115L266.012 143.11C266.386 142.269 266.97 141.63 267.765 141.194C268.575 140.758 269.58 140.539 270.78 140.539V143.321C270.655 143.29 270.538 143.274 270.429 143.274C270.32 143.258 270.211 143.251 270.102 143.251C268.996 143.251 268.115 143.578 267.461 144.232C266.806 144.871 266.479 145.829 266.479 147.107V153.161H263.558ZM273.258 153.161V140.68H276.18V153.161H273.258ZM274.731 138.623C274.185 138.623 273.733 138.452 273.375 138.109C273.032 137.766 272.861 137.353 272.861 136.87C272.861 136.371 273.032 135.958 273.375 135.631C273.733 135.288 274.185 135.117 274.731 135.117C275.276 135.117 275.72 135.281 276.063 135.608C276.421 135.92 276.6 136.317 276.6 136.8C276.6 137.314 276.429 137.75 276.086 138.109C275.743 138.452 275.292 138.623 274.731 138.623ZM284.712 153.324C283.341 153.324 282.281 152.974 281.534 152.272C280.786 151.556 280.412 150.504 280.412 149.117V137.922H283.333V149.047C283.333 149.639 283.481 150.099 283.777 150.426C284.089 150.753 284.517 150.917 285.063 150.917C285.717 150.917 286.263 150.745 286.699 150.403L287.517 152.483C287.174 152.763 286.753 152.974 286.255 153.114C285.756 153.254 285.242 153.324 284.712 153.324ZM278.355 143.11V140.773H286.675V143.11H278.355ZM290.72 157.859C290.113 157.859 289.505 157.757 288.897 157.555C288.29 157.352 287.783 157.072 287.378 156.713L288.547 154.563C288.843 154.828 289.178 155.038 289.552 155.194C289.926 155.35 290.307 155.428 290.697 155.428C291.227 155.428 291.655 155.295 291.982 155.03C292.31 154.766 292.614 154.321 292.894 153.698L293.619 152.062L293.852 151.712L298.574 140.68H301.378L295.535 154.166C295.146 155.101 294.709 155.841 294.226 156.386C293.759 156.931 293.229 157.313 292.637 157.531C292.06 157.749 291.422 157.859 290.72 157.859ZM293.291 153.605L287.659 140.68H290.697L295.278 151.454L293.291 153.605Z" fill="white"/>
<path d="M212.683 420.419C211.436 420.419 210.275 420.217 209.2 419.812C208.141 419.391 207.214 418.807 206.419 418.059C205.64 417.295 205.032 416.399 204.596 415.371C204.16 414.342 203.941 413.221 203.941 412.005C203.941 410.79 204.16 409.668 204.596 408.64C205.032 407.611 205.648 406.723 206.442 405.975C207.237 405.212 208.164 404.627 209.224 404.222C210.283 403.801 211.444 403.591 212.706 403.591C214.046 403.591 215.269 403.825 216.376 404.292C217.482 404.744 218.417 405.422 219.18 406.326L217.217 408.172C216.625 407.533 215.963 407.058 215.23 406.746C214.498 406.419 213.703 406.256 212.846 406.256C211.989 406.256 211.203 406.396 210.486 406.676C209.785 406.957 209.169 407.354 208.639 407.868C208.125 408.382 207.72 408.99 207.424 409.691C207.144 410.392 207.003 411.164 207.003 412.005C207.003 412.847 207.144 413.618 207.424 414.319C207.72 415.02 208.125 415.628 208.639 416.142C209.169 416.656 209.785 417.054 210.486 417.334C211.203 417.615 211.989 417.755 212.846 417.755C213.703 417.755 214.498 417.599 215.23 417.287C215.963 416.96 216.625 416.469 217.217 415.815L219.18 417.685C218.417 418.573 217.482 419.251 216.376 419.718C215.269 420.186 214.038 420.419 212.683 420.419ZM226.941 420.349C225.664 420.349 224.526 420.076 223.529 419.531C222.532 418.97 221.745 418.207 221.168 417.241C220.592 416.275 220.304 415.176 220.304 413.945C220.304 412.699 220.592 411.6 221.168 410.65C221.745 409.683 222.532 408.928 223.529 408.382C224.526 407.837 225.664 407.564 226.941 407.564C228.235 407.564 229.38 407.837 230.377 408.382C231.39 408.928 232.177 409.676 232.738 410.626C233.314 411.577 233.602 412.683 233.602 413.945C233.602 415.176 233.314 416.275 232.738 417.241C232.177 418.207 231.39 418.97 230.377 419.531C229.38 420.076 228.235 420.349 226.941 420.349ZM226.941 417.848C227.658 417.848 228.297 417.692 228.858 417.381C229.419 417.069 229.855 416.617 230.167 416.025C230.494 415.433 230.658 414.74 230.658 413.945C230.658 413.135 230.494 412.441 230.167 411.865C229.855 411.273 229.419 410.821 228.858 410.509C228.297 410.198 227.666 410.042 226.965 410.042C226.248 410.042 225.609 410.198 225.048 410.509C224.503 410.821 224.066 411.273 223.739 411.865C223.412 412.441 223.248 413.135 223.248 413.945C223.248 414.74 223.412 415.433 223.739 416.025C224.066 416.617 224.503 417.069 225.048 417.381C225.609 417.692 226.24 417.848 226.941 417.848ZM243.478 407.564C244.475 407.564 245.363 407.759 246.143 408.149C246.937 408.538 247.561 409.138 248.012 409.948C248.464 410.743 248.69 411.771 248.69 413.034V420.186H245.769V413.408C245.769 412.301 245.504 411.475 244.974 410.93C244.46 410.385 243.735 410.112 242.8 410.112C242.115 410.112 241.507 410.252 240.977 410.533C240.447 410.813 240.035 411.234 239.739 411.795C239.458 412.34 239.318 413.034 239.318 413.875V420.186H236.396V407.705H239.178V411.07L238.687 410.042C239.123 409.247 239.754 408.64 240.58 408.219C241.421 407.783 242.387 407.564 243.478 407.564ZM256.253 420.349C255.209 420.349 254.204 420.217 253.238 419.952C252.287 419.671 251.532 419.336 250.971 418.947L252.093 416.726C252.653 417.085 253.323 417.381 254.103 417.615C254.882 417.848 255.661 417.965 256.44 417.965C257.359 417.965 258.021 417.841 258.426 417.591C258.847 417.342 259.058 417.007 259.058 416.586C259.058 416.243 258.917 415.986 258.637 415.815C258.356 415.628 257.99 415.488 257.538 415.394C257.086 415.301 256.58 415.215 256.019 415.137C255.474 415.059 254.921 414.958 254.36 414.833C253.814 414.693 253.316 414.498 252.864 414.249C252.412 413.984 252.046 413.633 251.765 413.197C251.485 412.761 251.345 412.184 251.345 411.468C251.345 410.673 251.571 409.987 252.022 409.411C252.474 408.819 253.105 408.367 253.916 408.055C254.741 407.728 255.715 407.564 256.837 407.564C257.679 407.564 258.528 407.658 259.385 407.845C260.242 408.032 260.951 408.297 261.512 408.64L260.39 410.86C259.798 410.502 259.198 410.26 258.59 410.135C257.998 409.995 257.406 409.925 256.814 409.925C255.926 409.925 255.263 410.057 254.827 410.322C254.406 410.587 254.196 410.922 254.196 411.327C254.196 411.701 254.336 411.982 254.617 412.169C254.897 412.356 255.263 412.504 255.715 412.613C256.167 412.722 256.666 412.815 257.211 412.893C257.772 412.956 258.325 413.057 258.871 413.197C259.416 413.337 259.915 413.532 260.366 413.781C260.834 414.015 261.208 414.35 261.488 414.786C261.769 415.223 261.909 415.792 261.909 416.493C261.909 417.272 261.675 417.95 261.208 418.526C260.756 419.103 260.109 419.554 259.268 419.882C258.426 420.193 257.421 420.349 256.253 420.349ZM270.292 420.349C268.905 420.349 267.689 420.076 266.645 419.531C265.617 418.97 264.815 418.207 264.238 417.241C263.677 416.275 263.397 415.176 263.397 413.945C263.397 412.699 263.669 411.6 264.215 410.65C264.776 409.683 265.539 408.928 266.505 408.382C267.487 407.837 268.601 407.564 269.847 407.564C271.063 407.564 272.146 407.829 273.096 408.359C274.047 408.889 274.795 409.637 275.34 410.603C275.885 411.569 276.158 412.706 276.158 414.015C276.158 414.14 276.15 414.28 276.135 414.436C276.135 414.592 276.127 414.74 276.111 414.88H265.71V412.94H274.569L273.423 413.548C273.439 412.831 273.291 412.2 272.979 411.655C272.668 411.109 272.239 410.681 271.694 410.369C271.164 410.057 270.549 409.902 269.847 409.902C269.131 409.902 268.5 410.057 267.954 410.369C267.424 410.681 267.004 411.117 266.692 411.678C266.396 412.223 266.248 412.87 266.248 413.618V414.085C266.248 414.833 266.419 415.495 266.762 416.072C267.105 416.649 267.588 417.093 268.211 417.404C268.835 417.716 269.551 417.872 270.362 417.872C271.063 417.872 271.694 417.763 272.255 417.544C272.816 417.326 273.314 416.984 273.751 416.516L275.317 418.316C274.756 418.97 274.047 419.477 273.19 419.835C272.348 420.178 271.382 420.349 270.292 420.349ZM286.046 407.564C287.043 407.564 287.932 407.759 288.711 408.149C289.505 408.538 290.129 409.138 290.58 409.948C291.032 410.743 291.258 411.771 291.258 413.034V420.186H288.337V413.408C288.337 412.301 288.072 411.475 287.542 410.93C287.028 410.385 286.303 410.112 285.368 410.112C284.683 410.112 284.075 410.252 283.545 410.533C283.016 410.813 282.603 411.234 282.307 411.795C282.026 412.34 281.886 413.034 281.886 413.875V420.186H278.964V407.705H281.746V411.07L281.255 410.042C281.691 409.247 282.322 408.64 283.148 408.219C283.989 407.783 284.956 407.564 286.046 407.564ZM299.662 420.349C298.291 420.349 297.232 419.999 296.484 419.297C295.736 418.581 295.362 417.529 295.362 416.142V404.947H298.283V416.072C298.283 416.664 298.431 417.124 298.727 417.451C299.039 417.778 299.468 417.942 300.013 417.942C300.667 417.942 301.213 417.77 301.649 417.428L302.467 419.508C302.124 419.788 301.704 419.999 301.205 420.139C300.706 420.279 300.192 420.349 299.662 420.349ZM293.305 410.135V407.798H301.626V410.135H293.305Z" fill="white"/>
<path d="M245.255 331.247C243.978 331.247 242.801 331.044 241.726 330.639C240.667 330.219 239.739 329.634 238.945 328.886C238.15 328.123 237.535 327.227 237.098 326.198C236.662 325.17 236.444 324.048 236.444 322.833C236.444 321.617 236.662 320.496 237.098 319.467C237.535 318.439 238.15 317.551 238.945 316.803C239.755 316.039 240.698 315.455 241.773 315.05C242.848 314.629 244.024 314.419 245.302 314.419C246.689 314.419 247.935 314.645 249.042 315.096C250.164 315.548 251.106 316.211 251.87 317.083L249.953 318.953C249.314 318.314 248.621 317.847 247.873 317.551C247.141 317.239 246.33 317.083 245.442 317.083C244.585 317.083 243.791 317.223 243.058 317.504C242.326 317.784 241.695 318.182 241.165 318.696C240.635 319.21 240.222 319.818 239.926 320.519C239.646 321.22 239.506 321.991 239.506 322.833C239.506 323.659 239.646 324.422 239.926 325.123C240.222 325.824 240.635 326.44 241.165 326.97C241.695 327.484 242.318 327.881 243.035 328.162C243.752 328.442 244.546 328.582 245.419 328.582C246.229 328.582 247.008 328.458 247.756 328.208C248.52 327.944 249.244 327.507 249.93 326.9L251.659 329.167C250.802 329.852 249.805 330.374 248.668 330.733C247.546 331.076 246.408 331.247 245.255 331.247ZM248.785 328.769V322.646H251.659V329.167L248.785 328.769ZM260.996 331.177C259.718 331.177 258.581 330.904 257.583 330.359C256.586 329.798 255.799 329.034 255.223 328.068C254.646 327.102 254.358 326.004 254.358 324.773C254.358 323.526 254.646 322.428 255.223 321.477C255.799 320.511 256.586 319.755 257.583 319.21C258.581 318.665 259.718 318.392 260.996 318.392C262.289 318.392 263.434 318.665 264.432 319.21C265.444 319.755 266.231 320.503 266.792 321.454C267.369 322.404 267.657 323.511 267.657 324.773C267.657 326.004 267.369 327.102 266.792 328.068C266.231 329.034 265.444 329.798 264.432 330.359C263.434 330.904 262.289 331.177 260.996 331.177ZM260.996 328.676C261.713 328.676 262.351 328.52 262.912 328.208C263.473 327.897 263.91 327.445 264.221 326.853C264.548 326.261 264.712 325.567 264.712 324.773C264.712 323.962 264.548 323.269 264.221 322.693C263.91 322.1 263.473 321.649 262.912 321.337C262.351 321.025 261.72 320.87 261.019 320.87C260.302 320.87 259.664 321.025 259.103 321.337C258.557 321.649 258.121 322.1 257.794 322.693C257.467 323.269 257.303 323.962 257.303 324.773C257.303 325.567 257.467 326.261 257.794 326.853C258.121 327.445 258.557 327.897 259.103 328.208C259.664 328.52 260.295 328.676 260.996 328.676Z" fill="white"/>
<path d="M238.708 254.214V237.853H245.44C246.889 237.853 248.127 238.087 249.156 238.554C250.2 239.022 251.002 239.692 251.563 240.564C252.124 241.437 252.405 242.473 252.405 243.673C252.405 244.873 252.124 245.909 251.563 246.781C251.002 247.654 250.2 248.324 249.156 248.791C248.127 249.259 246.889 249.493 245.44 249.493H240.391L241.747 248.067V254.214H238.708ZM241.747 248.394L240.391 246.922H245.299C246.639 246.922 247.644 246.641 248.314 246.08C249 245.504 249.343 244.701 249.343 243.673C249.343 242.629 249 241.826 248.314 241.265C247.644 240.705 246.639 240.424 245.299 240.424H240.391L241.747 238.928V248.394ZM262.734 254.214V251.69L262.57 251.152V246.735C262.57 245.878 262.313 245.215 261.799 244.748C261.285 244.265 260.506 244.023 259.462 244.023C258.76 244.023 258.067 244.133 257.381 244.351C256.711 244.569 256.143 244.873 255.675 245.262L254.53 243.135C255.2 242.621 255.995 242.239 256.914 241.99C257.849 241.725 258.815 241.593 259.812 241.593C261.62 241.593 263.014 242.029 263.996 242.902C264.993 243.759 265.492 245.091 265.492 246.898V254.214H262.734ZM258.807 254.377C257.872 254.377 257.054 254.222 256.353 253.91C255.652 253.583 255.107 253.139 254.717 252.578C254.343 252.001 254.156 251.355 254.156 250.638C254.156 249.937 254.32 249.306 254.647 248.745C254.99 248.184 255.543 247.74 256.306 247.412C257.07 247.085 258.083 246.922 259.345 246.922H262.967V248.862H259.555C258.558 248.862 257.888 249.025 257.545 249.352C257.202 249.664 257.031 250.054 257.031 250.521C257.031 251.051 257.241 251.471 257.662 251.783C258.083 252.095 258.667 252.251 259.415 252.251C260.132 252.251 260.77 252.087 261.331 251.76C261.908 251.433 262.321 250.95 262.57 250.311L263.061 252.064C262.78 252.796 262.274 253.365 261.542 253.77C260.825 254.175 259.913 254.377 258.807 254.377Z" fill="white"/>
<path d="M272.306 292.21V275.85H279.038C280.487 275.85 281.726 276.083 282.754 276.551C283.798 277.018 284.6 277.688 285.161 278.561C285.722 279.433 286.003 280.47 286.003 281.669C286.003 282.869 285.722 283.905 285.161 284.778C284.6 285.635 283.798 286.297 282.754 286.765C281.726 287.217 280.487 287.442 279.038 287.442H273.989L275.345 286.063V292.21H272.306ZM283.011 292.21L278.874 286.274H282.123L286.283 292.21H283.011ZM275.345 286.391L273.989 284.942H278.897C280.237 284.942 281.242 284.653 281.912 284.077C282.598 283.5 282.941 282.698 282.941 281.669C282.941 280.625 282.598 279.823 281.912 279.262C281.242 278.701 280.237 278.421 278.897 278.421H273.989L275.345 276.925V286.391ZM296.697 292.21V289.686L296.533 289.149V284.731C296.533 283.874 296.276 283.212 295.762 282.745C295.248 282.262 294.469 282.02 293.425 282.02C292.724 282.02 292.03 282.129 291.345 282.347C290.675 282.565 290.106 282.869 289.639 283.259L288.493 281.132C289.163 280.618 289.958 280.236 290.877 279.987C291.812 279.722 292.778 279.589 293.776 279.589C295.583 279.589 296.978 280.026 297.959 280.898C298.956 281.755 299.455 283.087 299.455 284.895V292.21H296.697ZM292.77 292.374C291.836 292.374 291.018 292.218 290.316 291.907C289.615 291.579 289.07 291.135 288.68 290.574C288.306 289.998 288.119 289.351 288.119 288.634C288.119 287.933 288.283 287.302 288.61 286.741C288.953 286.18 289.506 285.736 290.27 285.409C291.033 285.082 292.046 284.918 293.308 284.918H296.931V286.858H293.518C292.521 286.858 291.851 287.022 291.508 287.349C291.166 287.661 290.994 288.05 290.994 288.518C290.994 289.047 291.205 289.468 291.625 289.78C292.046 290.091 292.63 290.247 293.378 290.247C294.095 290.247 294.734 290.084 295.295 289.756C295.871 289.429 296.284 288.946 296.533 288.307L297.024 290.06C296.744 290.793 296.237 291.361 295.505 291.766C294.788 292.171 293.877 292.374 292.77 292.374Z" fill="white"/>
<path d="M210.478 292.21V275.85H212.979L223.239 288.447H222V275.85H225.015V292.21H222.515L212.254 279.613H213.493V292.21H210.478Z" fill="white"/>
<defs>
<radialGradient id="paint0_radial_40_95" cx="0" cy="0" r="1" gradientUnits="userSpaceOnUse" gradientTransform="translate(252.008 284.453) rotate(90) scale(284.453 251.991)">
<stop stop-color="#343E6F"/>
<stop offset="1" stop-color="#372951"/>
</radialGradient>
</defs>
</svg>
